<?xml version="1.0" standalone="no"?>
<!DOCTYPE svg PUBLIC "-//W3C//DTD SVG 20010904//EN"
 "http://www.w3.org/TR/2001/REC-SVG-20010904/DTD/svg10.dtd">
<svg version="1.0" xmlns="http://www.w3.org/2000/svg"
 width="800.000000pt" height="800.000000pt" viewBox="0 0 800.000000 800.000000"
 preserveAspectRatio="xMidYMid meet">
<metadata>
Created by potrace 1.16, written by Peter Selinger 2001-2019
</metadata>
<g transform="translate(0.000000,800.000000) scale(0.099379,-0.099379)"
fill="#000000" stroke="none">
<path d="M1360 7990 c-718 -3 -1306 -7 -1308 -8 -4 -2 8 -2596 12 -2599 2 -2
276 272 611 609 334 337 921 927 1304 1311 383 383 694 696 691 695 -3 -1
-592 -5 -1310 -8z m264 -349 c17 -18 17 -22 2 -43 -33 -47 -22 -74 65 -163
l80 -83 -25 -28 -25 -29 -123 122 -123 123 22 22 c17 17 25 19 36 10 12 -10
15 -6 20 24 10 62 39 80 71 45z m-141 -217 c41 -21 95 -71 113 -107 9 -17 14
-50 13 -83 -2 -48 -7 -61 -40 -98 -47 -53 -103 -71 -164 -55 -138 38 -191 203
-97 303 51 54 117 69 175 40z m-383 -226 c17 -16 19 -16 33 0 8 9 17 28 19 42
4 35 48 42 48 8 0 -13 5 -29 12 -36 9 -9 5 -19 -20 -45 -31 -32 -32 -34 -14
-50 10 -9 22 -14 27 -10 4 5 6 3 2 -2 -7 -13 81 -102 103 -105 26 -4 40 0 40
11 0 5 -5 7 -12 3 -6 -4 -8 -3 -5 4 10 16 59 7 74 -14 11 -16 9 -22 -14 -47
-39 -41 -68 -50 -112 -35 -20 7 -47 13 -61 13 -20 0 -25 5 -25 27 -1 26 -30
70 -44 65 -3 -1 -7 3 -9 8 -2 6 -11 18 -19 28 -15 16 -17 16 -35 0 -18 -16
-20 -16 -40 5 -21 20 -21 22 -5 40 16 18 16 20 -1 35 -10 10 -21 14 -25 11 -3
-3 -4 5 -1 18 2 12 7 40 10 60 5 28 11 38 28 40 17 2 22 -3 24 -27 2 -16 12
-38 22 -47z m-65 -160 c14 -21 14 -24 -1 -33 -43 -26 -66 -53 -70 -83 -3 -23
0 -32 11 -32 18 0 20 -36 3 -43 -13 -4 47 -67 63 -67 4 0 15 -3 25 -7 11 -4
15 -3 10 5 -9 15 30 35 54 27 13 -4 23 2 36 25 10 16 26 30 36 30 10 0 18 5
18 10 0 18 39 10 45 -9 8 -26 -95 -135 -148 -156 -34 -14 -48 -14 -90 -4 -58
14 -118 68 -136 122 -7 20 -20 37 -31 40 -26 7 -28 49 -3 45 12 -2 24 11 39
43 23 47 84 109 109 109 8 0 21 -10 30 -22z m-173 -267 c25 -16 49 -34 53 -41
5 -8 -23 -43 -74 -94 -85 -86 -88 -94 -34 -110 41 -13 128 44 145 94 2 7 14 9
30 5 22 -6 27 -12 25 -36 -1 -16 -5 -29 -10 -29 -4 0 -24 -19 -45 -42 -62 -69
-129 -85 -201 -49 -53 27 -99 83 -112 136 -6 25 -15 45 -20 45 -5 0 -9 5 -9
11 0 5 4 7 10 4 5 -3 17 13 26 36 22 53 83 99 134 99 23 0 53 -11 82 -29z
m-361 -38 c-7 -3 -9 -8 -5 -12 5 -3 30 -50 56 -103 37 -76 52 -98 68 -98 15 0
20 -6 19 -27 0 -25 -1 -26 -9 -8 -7 17 -9 18 -9 2 -1 -9 20 -58 45 -108 l45
-91 -27 -30 c-16 -16 -33 -27 -39 -26 -5 2 -107 52 -225 112 l-214 108 32 29
32 28 32 -18 c18 -10 95 -50 170 -89 l137 -71 -62 122 c-34 67 -73 146 -86
175 l-25 52 29 30 c16 17 34 30 39 29 6 0 5 -3 -3 -6z"/>
<path d="M1362 7344 c-34 -23 -45 -60 -29 -92 9 -19 19 -26 35 -24 18 3 22 -1
22 -26 0 -50 75 -69 124 -31 20 16 26 29 26 61 0 35 -6 47 -44 84 -48 49 -92
58 -134 28z"/>
<path d="M3056 6438 c-14 -20 -16 -80 -16 -463 l0 -440 -76 -69 c-42 -38 -79
-76 -82 -85 -4 -10 -26 -34 -49 -55 -38 -34 -76 -50 -138 -60 -49 -7 -131 -29
-142 -39 -7 -5 -13 -6 -13 -2 0 4 -6 2 -13 -4 -8 -6 -17 -8 -20 -4 -4 3 -7 -3
-7 -15 0 -17 -6 -22 -24 -22 -13 0 -26 5 -28 10 -3 10 -137 -34 -148 -48 -3
-4 -12 -8 -20 -10 -31 -6 -70 -25 -70 -34 0 -5 -4 -7 -10 -3 -8 5 -45 -10 -60
-25 -3 -3 -31 -17 -63 -32 -31 -16 -75 -39 -97 -53 l-40 -25 0 -1496 0 -1495
24 -22 c27 -25 257 -141 356 -180 74 -29 233 -78 265 -81 11 -1 25 -5 31 -9
14 -8 192 -44 299 -59 134 -19 484 -16 625 5 153 23 340 70 475 119 118 43
343 147 413 191 l42 27 0 213 c0 118 3 217 7 220 3 4 12 2 18 -3 7 -6 90 -55
186 -110 l173 -100 56 31 c367 205 711 557 914 937 136 256 225 523 266 802
21 145 36 377 25 409 -3 12 -27 32 -53 45 -26 13 -179 101 -341 195 -162 94
-300 171 -308 171 -7 0 -13 4 -13 8 0 12 -76 53 -84 45 -3 -3 -6 -1 -6 4 0 12
-168 110 -182 105 -4 -1 -8 2 -8 7 0 10 -170 107 -182 103 -4 -1 -8 3 -8 10 0
6 -3 9 -6 5 -3 -3 -14 3 -25 14 -11 11 -24 17 -29 14 -4 -3 -10 -1 -12 4 -1 6
-46 34 -99 64 -75 43 -102 53 -127 49 -27 -4 -32 -1 -32 17 0 20 -36 50 -102
82 -15 8 -107 60 -204 117 -97 56 -181 99 -186 95 -6 -3 -8 -2 -5 4 3 5 -72
54 -166 108 -95 54 -229 132 -299 173 l-127 74 -70 -38 c-39 -21 -74 -34 -78
-30 -4 4 -8 147 -8 318 0 294 -1 311 -20 324 -14 10 -52 14 -141 14 -116 0
-124 -1 -138 -22z m213 -67 c12 -8 14 -92 12 -520 -2 -457 -1 -511 13 -511 12
0 16 -10 16 -35 0 -34 -13 -47 -23 -22 -3 6 -6 -142 -6 -330 l-1 -341 -31 -26
c-17 -14 -35 -26 -40 -26 -26 0 -68 33 -78 61 -17 49 -16 1740 1 1751 17 10
119 10 137 -1z m369 -665 c70 -40 278 -160 462 -266 184 -106 446 -257 582
-336 136 -78 249 -139 252 -136 3 3 6 -1 6 -8 0 -7 3 -11 6 -7 4 3 13 0 20 -8
8 -7 112 -70 232 -138 183 -105 223 -123 250 -119 27 4 32 1 32 -16 0 -11 6
-24 13 -30 6 -6 127 -76 267 -157 140 -80 261 -153 269 -160 13 -13 13 -37 3
-172 -24 -328 -94 -588 -236 -878 -185 -376 -449 -678 -800 -912 -141 -94
-138 -93 -216 -46 -36 22 -112 66 -170 98 -58 32 -113 65 -122 73 -16 13 -18
36 -18 193 0 154 -2 178 -15 173 -11 -5 -15 1 -15 20 0 14 5 26 10 26 6 0 10
49 10 126 0 69 5 134 10 144 9 18 24 11 191 -85 100 -58 189 -105 199 -105 21
0 37 19 37 43 0 19 -54 59 -103 77 -14 6 -40 21 -57 34 -18 13 -77 47 -132 76
-55 29 -115 64 -132 78 l-33 24 0 117 c0 66 4 110 9 103 5 -8 10 43 13 121 3
74 8 139 12 145 6 10 37 -6 456 -248 204 -117 221 -122 228 -68 3 29 -13 43
-108 95 -30 17 -127 72 -215 123 -88 51 -204 117 -257 147 -54 30 -101 59
-104 65 -8 12 -12 91 -18 321 -5 182 -4 187 15 187 11 0 154 -77 317 -171 163
-94 363 -209 444 -256 161 -93 191 -100 196 -47 3 30 0 32 -300 204 -167 96
-348 199 -403 231 -55 31 -140 79 -188 107 l-88 49 3 219 3 218 -80 43 c-44
23 -86 40 -93 38 -7 -3 -11 -1 -8 3 7 12 -63 44 -76 36 -7 -4 -8 -2 -4 4 4 7
3 12 -3 12 -5 0 -12 -4 -15 -9 -10 -15 -41 -5 -41 13 0 26 -33 41 -59 27 -29
-16 -76 1 -76 27 0 13 -12 22 -40 31 -22 7 -46 9 -52 5 -7 -5 -8 -3 -3 6 6 10
3 12 -13 8 -12 -4 -20 -3 -17 2 6 10 -54 22 -68 13 -6 -4 -7 -1 -2 7 6 10 2
11 -19 6 -16 -4 -26 -2 -26 5 0 6 -6 9 -14 6 -7 -3 -18 -1 -24 5 -5 5 -28 11
-51 11 -22 1 -41 6 -41 10 0 5 -22 6 -49 2 -29 -4 -51 -3 -55 3 -3 6 -16 8
-28 4 -15 -4 -19 -2 -13 7 5 10 -5 12 -46 8 -34 -2 -58 1 -66 8 -8 9 -12 67
-14 194 l-2 182 69 44 c38 24 72 44 77 44 4 1 65 -32 135 -73z m-588 -1079 c0
-64 55 -123 124 -134 29 -4 36 -2 36 11 0 19 46 23 52 4 3 -8 14 -5 35 10 27
19 48 59 69 130 6 22 23 4 29 -32 16 -83 -41 -172 -133 -206 -56 -21 -58 -21
-107 -4 -70 24 -100 48 -124 97 -23 47 -27 116 -10 148 14 27 29 15 29 -24z
m-344 -781 c9 -8 13 -216 16 -755 5 -715 4 -745 -13 -762 -24 -24 -51 -24 -71
-1 -13 15 -16 113 -21 757 l-6 740 22 23 c21 23 50 22 73 -2z m534 4 c16 -16
20 -33 20 -85 0 -52 4 -69 20 -85 20 -20 25 -41 13 -53 -3 -4 -11 1 -18 9 -9
13 -11 -133 -7 -629 l4 -646 -25 -25 c-32 -32 -48 -33 -73 -5 -16 18 -20 43
-25 178 -4 86 -4 202 -1 259 4 90 3 102 -11 102 -18 0 -25 46 -7 52 10 3 16
771 5 788 -3 5 0 10 7 10 9 0 9 3 -2 10 -10 6 -11 10 -2 10 8 0 12 16 12 45 0
47 25 85 55 85 8 0 24 -9 35 -20z m539 -6 c21 -26 21 -36 21 -543 0 -322 4
-510 10 -501 8 12 10 12 16 -3 8 -23 -3 -50 -17 -41 -9 5 -11 -44 -7 -194 5
-197 4 -202 -17 -222 -26 -24 -52 -26 -77 -3 -17 15 -18 43 -18 460 0 387 -2
443 -15 443 -17 0 -22 56 -6 62 6 2 11 115 14 265 3 237 5 264 22 283 25 27
49 25 74 -6z"/>
</g>
</svg>
